<svg height="734" width="720" xmlns="http://www.w3.org/2000/svg">
<rect height="734" fill="#555" width="720"></rect>
<text fill="#7f7" font-family="Courier New" font-size="12" xml:space="preserve">
<tspan x="10" y="26">10 megabytes installed</tspan>
<tspan x="10" y="42"></tspan>
<tspan x="10" y="58">node_modules</tspan>
<tspan x="10" y="74">└─┬ grunt-closure-tools@0.9.9 </tspan>
<tspan x="10" y="90">  ├─┬ grunt@0.4.5 </tspan>
<tspan x="10" y="106">  │ ├── async@0.1.22 </tspan>
<tspan x="10" y="122">  │ ├── coffee-script@1.3.3 </tspan>
<tspan x="10" y="138">  │ ├── colors@0.6.2 </tspan>
<tspan x="10" y="154">  │ ├── dateformat@1.0.2-1.2.3 </tspan>
<tspan x="10" y="170">  │ ├── eventemitter2@0.4.14 </tspan>
<tspan x="10" y="186">  │ ├── exit@0.1.2 </tspan>
<tspan x="10" y="202">  │ ├─┬ findup-sync@0.1.3 </tspan>
<tspan x="10" y="218">  │ │ ├─┬ glob@3.2.11 </tspan>
<tspan x="10" y="234">  │ │ │ ├── inherits@2.0.3 </tspan>
<tspan x="10" y="250">  │ │ │ └── minimatch@0.3.0 </tspan>
<tspan x="10" y="266">  │ │ └── lodash@2.4.2 </tspan>
<tspan x="10" y="282">  │ ├── getobject@0.1.0 </tspan>
<tspan x="10" y="298">  │ ├─┬ glob@3.1.21 </tspan>
<tspan x="10" y="314">  │ │ ├── graceful-fs@1.2.3 </tspan>
<tspan x="10" y="330">  │ │ └── inherits@1.0.2 </tspan>
<tspan x="10" y="346">  │ ├─┬ grunt-legacy-log@0.1.3 </tspan>
<tspan x="10" y="362">  │ │ ├─┬ grunt-legacy-log-utils@0.1.1 </tspan>
<tspan x="10" y="378">  │ │ │ ├── lodash@2.4.2 </tspan>
<tspan x="10" y="394">  │ │ │ └── underscore.string@2.3.3 </tspan>
<tspan x="10" y="410">  │ │ ├── lodash@2.4.2 </tspan>
<tspan x="10" y="426">  │ │ └── underscore.string@2.3.3 </tspan>
<tspan x="10" y="442">  │ ├── grunt-legacy-util@0.2.0 </tspan>
<tspan x="10" y="458">  │ ├── hooker@0.2.3 </tspan>
<tspan x="10" y="474">  │ ├── iconv-lite@0.2.11 </tspan>
<tspan x="10" y="490">  │ ├─┬ js-yaml@2.0.5 </tspan>
<tspan x="10" y="506">  │ │ ├─┬ argparse@0.1.16 </tspan>
<tspan x="10" y="522">  │ │ │ ├── underscore@1.7.0 </tspan>
<tspan x="10" y="538">  │ │ │ └── underscore.string@2.4.0 </tspan>
<tspan x="10" y="554">  │ │ └── esprima@1.0.4 </tspan>
<tspan x="10" y="570">  │ ├── lodash@0.9.2 </tspan>
<tspan x="10" y="586">  │ ├─┬ minimatch@0.2.14 </tspan>
<tspan x="10" y="602">  │ │ ├── lru-cache@2.7.3 </tspan>
<tspan x="10" y="618">  │ │ └── sigmund@1.0.1 </tspan>
<tspan x="10" y="634">  │ ├─┬ nopt@1.0.10 </tspan>
<tspan x="10" y="650">  │ │ └── abbrev@1.1.0 </tspan>
<tspan x="10" y="666">  │ ├── rimraf@2.2.8 </tspan>
<tspan x="10" y="682">  │ ├── underscore.string@2.2.1 </tspan>
<tspan x="10" y="698">  │ └── which@1.0.9 </tspan>
<tspan x="10" y="714">  └── task-closure-tools@0.1.10</tspan>
</text>
</svg>
